# xmcd
#
# Track frame offsets:
#	150
#	30137
#	59757
#	88762
#	100035
#	136565
#
# Disc length: 2271 seconds
#
# Revision: 0
# Processed by: cddbd v1.5.2PL0 Copyright (c) Steve Scherf et al.
# Submitted via: audiograbber 1.83.01
#
DISCID=3f08dd06
DTITLE=Robben Ford - Schizophonic
DYEAR=1976
DGENRE=Blues
TTITLE0=Miss Miss
TTITLE1=Ladies' Choice
TTITLE2=Hawk's Theme
TTITLE3=Low Ride
TTITLE4=Stella and Frenchie
TTITLE5=Softly Rolling
EXTD=
EXTT0=
EXTT1=
EXTT2=
EXTT3=
EXTT4=
EXTT5=
PLAYORDER=
